<svg height="437pt" viewBox="0 -21 437.67202 437" width="437pt" xmlns="http://www.w3.org/2000/svg"><path d="m430.671875.335938h-423.671875c-3.867188 0-7 3.132812-7 7v287.023437c0 3.867187 3.132812 7 7 7h159.71875l-9.082031 55.5625h-29.433594c-17.25.019531-31.230469 14-31.25 31.25 0 3.867187 3.132813 7 7 7h229.765625c3.867188 0 7-3.132813 7-7-.019531-17.25-13.996094-31.230469-31.246094-31.25h-29.4375l-9.085937-55.570313h159.722656c3.867187 0 7-3.132812 7-7v-287c.003906-1.859374-.730469-3.644531-2.042969-4.960937-1.316406-1.316406-3.097656-2.054687-4.957031-2.054687zm-416.671875 14h409.671875v10.664062h-409.671875zm409.671875 24.664062v191.71875h-409.671875v-191.722656zm-98.4375 342.167969h-212.796875c2.769531-6.230469 8.949219-10.246094 15.765625-10.253907h181.265625c6.816406.007813 12.996094 4.023438 15.765625 10.253907zm-59.367187-24.253907h-94.0625l9.101562-55.5625h75.855469zm157.804687-69.5625h-409.671875v-42.636718h409.671875zm-224.097656-89.667968c2.546875.898437 5.386719.257812 7.296875-1.648438l6.117187-6.113281 32.5 32.5c1.3125 1.3125 3.09375 2.050781 4.949219 2.050781 1.859375 0 3.636719-.738281 4.949219-2.050781l14-14c1.316406-1.3125 2.054687-3.09375 2.054687-4.953125 0-1.855469-.738281-3.636719-2.054687-4.949219l-32.5-32.5 6.117187-6.117187c1.910156-1.910156 2.550782-4.75 1.644532-7.292969-.90625-2.546875-3.195313-4.34375-5.882813-4.617187l-40.25-4.109376c-2.09375-.214843-4.175781.523438-5.664063 2.011719-1.488281 1.492188-2.230468 3.570313-2.015624 5.664063l4.117187 40.246094c.277344 2.6875 2.074219 4.976562 4.621094 5.878906zm23.109375-37.253906-.652344.648437c-1.3125 1.3125-2.050781 3.09375-2.050781 4.953125 0 1.855469.738281 3.636719 2.050781 4.949219l32.5 32.5-4.09375 4.09375-32.5-32.5c-1.3125-1.3125-3.09375-2.050781-4.953125-2.050781-1.855469 0-3.636719.738281-4.949219 2.050781l-.652344.652343-1.742187-17.039062zm-179.640625-85.667969c3.558593-.003907 6.546875-2.667969 6.957031-6.203125h12.117188l13.824218 88c-9.421875 2.632812-15.507812 11.746094-14.328125 21.457031 1.179688 9.707031 9.269531 17.101563 19.042969 17.40625h3.832031c-1.84375 4.367187-.511719 9.429687 3.242188 12.328125 3.757812 2.894531 8.992187 2.894531 12.75 0 3.753906-2.898438 5.089843-7.960938 3.242187-12.328125h33.722656c-1.84375 4.367187-.511718 9.425781 3.242188 12.320313 3.757812 2.890624 8.988281 2.890624 12.742188 0 3.753906-2.894532 5.089843-7.953126 3.246093-12.320313h12.089844c3.863281 0 7-3.136719 7-7 0-3.867187-3.136719-7-7-7h-87.644531c-3.03125-.128906-5.457032-2.558594-5.578125-5.589844-.121094-3.027343 2.101562-5.644531 5.113281-6.011719l92.890625-10.296874c.90625 3.398437 4.191406 5.59375 7.675781 5.140624 3.484375-.457031 6.089844-3.429687 6.089844-6.945312-.019531-3.15625-1.253906-6.1875-3.441406-8.460938 2.253906-3.683593 3.445312-7.917968 3.441406-12.234374v-24.800782c2.101562-1.957031 2.789062-5 1.730469-7.671875-1.054688-2.671875-3.636719-4.425781-6.507813-4.417969h-101.300781l-5.40625-34.402343c-.984375-6.433594-6.53125-11.175781-13.039063-11.144531h-13.554687c-7.289063 0-13.199219 5.90625-13.199219 13.199218.015625 3.859375 3.148438 6.980469 7.007813 6.976563zm121.886719 71.625-55.925782 6.203125-19.101562 2.113281-2.304688-14.691406h85.199219c-1.152344 3.480469-4.226563 5.96875-7.867187 6.375zm8.398437-32.269531v11.894531h-87.933594l-1.867187-11.894531zm165.390625 66.257812c34.746094 0 62.910156-28.164062 62.910156-62.90625s-28.164062-62.910156-62.910156-62.910156c-34.742188 0-62.90625 28.167968-62.90625 62.910156.039062 34.726562 28.179688 62.867188 62.90625 62.90625zm0-111.816406c27.011719 0 48.910156 21.898437 48.910156 48.910156s-21.898437 48.90625-48.910156 48.90625-48.90625-21.894531-48.90625-48.90625c.023438-27.003906 21.90625-48.886719 48.90625-48.917969zm-14.761719 65.332031c-2.144531-1.441406-5.035156-1.039063-6.699219.9375l-.800781.960937c-.933593 1.09375-1.363281 2.53125-1.179687 3.957032.1875 1.425781.964844 2.710937 2.148437 3.53125 4.910157 3.238281 10.503907 5.289062 16.34375 6v3.808594c0 2.8125 2.28125 5.09375 5.09375 5.09375 2.816407 0 5.097657-2.28125 5.097657-5.09375v-3.734376c11.574218-1.484374 18.257812-8.488281 18.257812-18.453124 0-10.101563-7.199219-14.101563-18.257812-16.835938v-13.648438c2.160156.675782 4.242187 1.59375 6.195312 2.738282 2.253906 1.347656 5.160156.761718 6.714844-1.351563l.730468-1c.832032-1.125 1.164063-2.546875.914063-3.925781s-1.058594-2.59375-2.234375-3.355469c-3.761719-2.3125-7.953125-3.835937-12.320312-4.480469v-7.199218c0-2.8125-2.28125-5.097656-5.097657-5.097656-2.8125 0-5.09375 2.285156-5.09375 5.097656v6.851562c-10.933593 1.375-18.132812 8.421875-18.132812 18.21875 0 10.402344 7.390625 14.269532 18.136719 17.023438v14.265625c-3.515626-.808594-6.84375-2.269531-9.816407-4.308594zm20-7.332031c3.878907 1.316406 5.449219 2.855468 5.449219 5.710937-.140625 3.0625-2.417969 5.601563-5.449219 6.074219zm-15.519531-20.933594c.144531-2.992188 2.371094-5.46875 5.328125-5.933594v11.6875c-3.789063-1.285156-5.328125-2.917968-5.328125-5.753906zm59.839844 93.851562c0 3.867188-3.136719 7-7 7h-85.117188c-3.867187 0-7-3.132812-7-7 0-3.867187 3.132813-7 7-7h85.117188c3.863281 0 7 3.132813 7 7zm0 0"/></svg>