<svg width="157" height="300" viewBox="0 0 157 300" fill="none" xmlns="http://www.w3.org/2000/svg">
<rect x="1.5" y="1.5" width="154" height="297" stroke="#0D703A" stroke-width="3"/>
<path d="M90.864 48.768C93.4667 49.4933 95.5147 50.816 97.008 52.736C98.5013 54.6133 99.248 57.0027 99.248 59.904C99.248 63.7867 97.776 66.7733 94.832 68.864C91.9307 70.9547 87.6853 72 82.096 72H60.72V27.2H80.816C85.936 27.2 89.8827 28.224 92.656 30.272C95.472 32.32 96.88 35.1573 96.88 38.784C96.88 41.1307 96.3253 43.1573 95.216 44.864C94.1493 46.5707 92.6987 47.872 90.864 48.768ZM67.12 32.384V46.72H80.24C83.5253 46.72 86.0427 46.1227 87.792 44.928C89.584 43.6907 90.48 41.8987 90.48 39.552C90.48 37.2053 89.584 35.4347 87.792 34.24C86.0427 33.0027 83.5253 32.384 80.24 32.384H67.12ZM81.84 66.816C85.4667 66.816 88.1973 66.2187 90.032 65.024C91.8667 63.8293 92.784 61.952 92.784 59.392C92.784 54.4 89.136 51.904 81.84 51.904H67.12V66.816H81.84Z" fill="#0D703A"/>
<path d="M110.016 129.2L95.04 174H88.32L76.096 138.224L63.872 174H57.024L42.048 129.2H48.64L60.736 165.616L73.344 129.2H79.232L91.584 165.808L103.936 129.2H110.016Z" fill="#0D703A"/>
<path d="M56.72 229.2H75.6C80.336 229.2 84.5387 230.139 88.208 232.016C91.8773 233.893 94.7147 236.539 96.72 239.952C98.768 243.323 99.792 247.205 99.792 251.6C99.792 255.995 98.768 259.899 96.72 263.312C94.7147 266.683 91.8773 269.307 88.208 271.184C84.5387 273.061 80.336 274 75.6 274H56.72V229.2ZM75.216 268.432C78.8427 268.432 82.0213 267.728 84.752 266.32C87.5253 264.912 89.6587 262.949 91.152 260.432C92.6453 257.872 93.392 254.928 93.392 251.6C93.392 248.272 92.6453 245.349 91.152 242.832C89.6587 240.272 87.5253 238.288 84.752 236.88C82.0213 235.472 78.8427 234.768 75.216 234.768H63.12V268.432H75.216Z" fill="#0D703A"/>
<line x1="26" y1="200.5" x2="131" y2="200.5" stroke="#0D703A" stroke-width="3"/>
<line x1="26" y1="103.5" x2="131" y2="103.5" stroke="#0D703A" stroke-width="3"/>
</svg>
